<?xml version="1.0" ?><!DOCTYPE svg  PUBLIC '-//W3C//DTD SVG 1.1//EN'  'http://www.w3.org/Graphics/SVG/1.1/DTD/svg11.dtd'><svg height="43.3492mm" style="shape-rendering:geometricPrecision; text-rendering:geometricPrecision; image-rendering:optimizeQuality; fill-rule:evenodd; clip-rule:evenodd" version="1.1" viewBox="0 0 4335 4335" width="43.3492mm" xml:space="preserve" xmlns="http://www.w3.org/2000/svg" xmlns:xlink="http://www.w3.org/1999/xlink"><defs><style type="text/css">
   <![CDATA[
    .fil3 {fill:#36349E}
    .fil1 {fill:#4242AD}
    .fil0 {fill:#4E4EBA}
    .fil4 {fill:#7878DB}
    .fil2 {fill:white}
   ]]>
  </style></defs><g id="Layer_x0020_1"><g id="_714010760"><path class="fil0" d="M569 28l3181 0c298,0 543,244 543,543l0 3181c0,298 -244,543 -543,543l-3181 0c-298,0 -542,-244 -543,-542l0 -3183c1,-298 245,-542 543,-542z"/><path class="fil1" d="M4293 2593l-2028 -1713c0,0 -109,288 -109,535 0,247 104,503 144,622 40,120 72,287 16,391 -56,104 -104,295 -144,311 -40,16 -254,137 -254,137l-208 3 168 155 -1568 -31 1530 1291 1961 0c0,0 494,-81 494,-543 0,-461 0,-1158 0,-1158z"/><path class="fil2" d="M1709 2879c13,-40 63,-170 169,-247 127,-91 344,-254 284,-518 -59,-264 -154,-676 -107,-940 47,-264 141,-305 141,-305 0,0 98,-36 98,102 0,137 36,264 152,417 117,152 269,244 269,244 0,0 112,30 97,132 -15,102 -15,127 -15,127 0,0 259,-25 356,81 97,107 173,213 330,274 157,61 442,71 442,71 0,0 91,51 -46,122 -137,71 -513,157 -803,107 -290,-51 -508,-76 -508,-76 0,0 -117,-36 -193,102 -48,87 -44,203 -33,276 -213,27 -469,32 -633,32zm800 34c105,-2 252,-3 403,0l2 0c136,4 236,10 257,11l2 0 1 0c115,8 219,20 293,39 305,76 305,76 305,76 0,0 -828,46 -1483,157 -655,112 -1062,168 -1433,36 -371,-132 -549,-229 -549,-229 -12,-44 1492,-11 1889,-66 93,-13 202,-20 311,-24zm1503 268c0,0 -300,36 -554,127 -254,91 -655,193 -940,127 -284,-66 -345,-102 -345,-102 447,0 1507,-374 1839,-152z"/><path class="fil3" d="M4115 170c109,99 177,242 177,400l0 3181c0,298 -244,543 -543,543l-3181 0c-179,0 -338,-88 -437,-222 97,88 225,142 365,142l3181 0c298,0 543,-244 543,-543l0 -3181c0,-120 -39,-231 -106,-321z"/><path class="fil4" d="M204 4152c-109,-99 -177,-242 -177,-400l0 -3181c0,-298 244,-543 543,-543l3181 0c179,0 338,88 437,222 -97,-88 -225,-142 -365,-142l-3181 0c-298,0 -543,244 -543,543l0 3181c0,120 39,231 106,321z"/></g></g></svg>